<svg version="1.2" xmlns="http://www.w3.org/2000/svg" viewBox="0 0 239 117" width="239" height="117">
	<title>mrh-lo-us-rgb-0222_Primary-svg</title>
	<style>
		.s0 { fill: #ecb01f } 
		.s1 { fill: #b62025 } 
		.s2 { fill: #3d3e3e } 
	</style>
	<g id="Layer">
		<path id="Layer" class="s0" d="m170.1 52.8c-2.9 0-2.5-5.4-1.5-8.5 15.3-1 31.1-0.8 47.2 0.3 1.5 0.1 1.3 4 0.5 7.4-16.9-0.8-32.5-0.7-46.2 0.8z"/>
		<path id="Layer" class="s1" d="m32.3 31.5v46.5h-7.4l-0.4-15.2h-7.4v15.2h-7.5v-34.9l7.5-3.8v15.4h7.8v-19.5l7.4-3.7z"/>
		<path id="Layer" class="s1" d="m60.5 55.1h6.7v3.9c1.2-2.3 3.1-4.3 6.1-4.3 6.7 0 9 5.1 8.9 11.1 0 0.1 0.1 1.1 0.1 12.2h-6.1v-11.2c0-2.8-0.6-6.6-4.2-6.6-3.4 0-4.9 2.5-4.9 7 0 0 0 10.8 0 10.8h-6.6v-22.9z"/>
		<path id="Layer" fill-rule="evenodd" class="s1" d="m106.8 45.4v32.6h-6.6v-4.1c-1.2 2.5-3.2 4.6-6.3 4.6-6.5 0-9.6-6-9.6-12 0-5.9 3.1-11.8 9.6-11.8 3.2 0 5.1 1.8 6.3 4.1v-16.8zm-6.7 21.2c0-2.7-1.3-6.4-4.9-6.4-3.6 0-4.8 3.7-4.8 6.4 0 2.7 1.2 6.5 4.8 6.5 3.6 0 4.9-3.7 4.9-6.5z"/>
		<path id="Layer" class="s1" d="m133.8 55.1h6.7v4.4c1.2-3.4 3.6-4.8 6.2-4.8 2.5 0 5.2 2 6.1 5.4 1.4-3.7 4.1-5.4 6.7-5.4 3.4 0 6.7 2.2 6.7 7.6v15.7h-6v-13.5c0-3.2-0.9-4.3-3-4.3-1.9 0-3.9 2.4-3.9 5.4v12.4h-6v-13.5c0-3-1.2-4.3-3.1-4.3-2 0-3.6 3-3.7 6.6v11.2h-6.7z"/>
		<path id="Layer" fill-rule="evenodd" class="s1" d="m191.2 55.1v22.9h-6.7v-3.9c-1.2 2.4-3.1 4.6-6.2 4.6-6.5 0-9.6-6.3-9.6-12.3 0-6 3.1-12 9.6-12 3.2 0 5.3 1.7 6.2 4.5v-3.8zm-6.6 11.3c0-2.7-1.3-6.4-4.9-6.4-3.6 0-4.9 3.6-4.9 6.4 0 2.7 1 6.7 4.9 6.7 3.7 0 4.9-4 4.9-6.7z"/>
		<path id="Layer" fill-rule="evenodd" class="s1" d="m57.2 55.1v22.9h-6.7v-3.9c-1.2 2.4-3.1 4.6-6.1 4.6-6.6 0-9.7-6.3-9.7-12.3 0-6 3.1-12 9.7-12 3.2 0 5.2 1.7 6.1 4.5v-3.8zm-6.5 11.3c0-2.7-1.3-6.4-4.9-6.4-3.7 0-4.9 3.6-4.9 6.4 0 2.7 1 6.7 4.9 6.7 3.6 0 4.9-4 4.9-6.7z"/>
		<path id="Layer" class="s1" d="m210.4 78v-11.2c0-2.8-0.5-6.6-4.2-6.6-2.9 0-4.9 2.5-4.9 7 0 0 0 6.9 0 10.8h-6.6v-22.6h6.7v3.6c1.2-2.3 3.1-4.3 6.1-4.3 6.7 0 9 5.1 9 11.1 0 0.1 0 3.8 0 12.2z"/>
		<path id="Layer" class="s2" d="m111 46.3h0.8v1.5h1.1v-1.5h0.8v3.8h-0.8v-1.6h-1.1v1.6h-0.8v-3.8z"/>
		<path id="Layer" fill-rule="evenodd" class="s2" d="m116.1 50.1c-1 0-1.7-0.8-1.7-1.9 0-1.1 0.7-1.9 1.7-1.9 1 0 1.8 0.8 1.8 1.9 0 1.1-0.8 1.9-1.8 1.9zm1-1.9c0-0.7-0.4-1.2-1-1.2-0.5 0-0.9 0.5-0.9 1.2 0 0.7 0.4 1.2 0.9 1.2 0.6 0 1-0.5 1-1.2z"/>
		<path id="Layer" class="s2" d="m118.5 46.3h1l0.8 2.5h0.1l0.8-2.5h0.9v3.8h-0.8v-2.1l-0.7 2.1h-0.6l-0.7-2.1v2.1h-0.8v-3.8z"/>
		<path id="Layer" class="s2" d="m123 46.3h2.3v0.7h-1.5v0.8h1.2v0.7h-1.2v0.9h1.5v0.7h-2.3v-3.8z"/>
		<path id="Layer" class="s2" d="m127.8 46.3h0.8v3.8h-0.8z"/>
		<path id="Layer" class="s2" d="m129.5 46.3h1l0.7 2.5h0.1l0.8-2.5h1v3.8h-0.8v-2.1l-0.7 2.1h-0.6l-0.7-2.1v2.1h-0.8v-3.8z"/>
		<path id="Layer" fill-rule="evenodd" class="s2" d="m134 50.1v-3.8h1.5c0.5 0 0.8 0.2 1 0.4 0.2 0.2 0.3 0.5 0.3 0.8 0 0.7-0.5 1.3-1.3 1.3h-0.8v1.3h-0.7zm0.7-3v1h0.8c0.4 0 0.5-0.4 0.5-0.6 0-0.3-0.2-0.4-0.5-0.4z"/>
		<path id="Layer" fill-rule="evenodd" class="s2" d="m137.5 46.3h1.5c0.7 0 1.3 0.5 1.3 1.2 0 0.5-0.3 1-0.9 1.2l0.8 1.4h-1l-0.5-1.3h-0.4v1.3h-0.8zm1.5 1.7c0.6 0 0.7-1 0-1h-0.7c0 0 0 1 0 1z"/>
		<path id="Layer" fill-rule="evenodd" class="s2" d="m142.6 50.1c-1 0-1.8-0.8-1.8-1.9 0-1.1 0.8-1.9 1.8-1.9 1 0 1.8 0.8 1.8 1.9 0 1.1-0.8 1.9-1.8 1.9zm1-1.9c0-0.7-0.4-1.2-1-1.2-0.5 0-0.9 0.5-0.9 1.2 0 0.7 0.4 1.2 0.9 1.2 0.6 0 1-0.5 1-1.2z"/>
		<path id="Layer" class="s2" d="m144.7 46.3h0.8l0.8 2.9 0.8-2.9h0.8l-1.1 3.8h-0.9l-1.2-3.8z"/>
		<path id="Layer" class="s2" d="m148.5 46.3h2.3v0.7h-1.5v0.8h1.2v0.7h-1.2v0.9h1.5v0.7h-2.3v-3.8z"/>
		<path id="Layer" class="s2" d="m151.6 46.3h1l0.8 2.5h0.1l0.7-2.5h1v3.8h-0.8v-2.1l-0.7 2.1h-0.6l-0.7-2.1v2.1h-0.8v-3.8z"/>
		<path id="Layer" class="s2" d="m156.1 46.3h2.3v0.7h-1.5v0.8h1.2v0.7h-1.2v0.9h1.5v0.7h-2.3v-3.8z"/>
		<path id="Layer" class="s2" d="m159.2 50.1v-3.8h0.8l1.4 2.4v-2.4h0.8v3.8h-0.8l-1.4-2.3v2.3h-0.8z"/>
		<path id="Layer" class="s2" d="m162.9 47.1v-0.8h2.9v0.8h-1.1v3h-0.8v-3h-1z"/>
		<path id="Layer" fill-rule="evenodd" class="s2" d="m170.8 50.1v-3.8h1.6c0.4 0 0.8 0.2 0.9 0.4 0.2 0.2 0.3 0.5 0.3 0.8 0 0.7-0.4 1.3-1.2 1.3h-0.8v1.3h-0.8zm0.8-3v1h0.7c0.5 0 0.6-0.4 0.6-0.6 0-0.3-0.3-0.4-0.6-0.4z"/>
		<path id="Layer" fill-rule="evenodd" class="s2" d="m174.3 46.3h1.5c0.7 0 1.3 0.5 1.3 1.2 0 0.5-0.3 1-0.8 1.2l0.8 1.4h-1l-0.6-1.3h-0.4v1.3h-0.8zm0.8 1.7q0 0 0 0zm0.8 0c0.6 0 0.6-1 0-1h-0.8c0 0 0 1 0 1z"/>
		<path id="Layer" fill-rule="evenodd" class="s2" d="m179.5 50.1c-1 0-1.8-0.8-1.8-1.9 0-1.1 0.8-1.9 1.8-1.9 0.9 0 1.7 0.8 1.7 1.9 0 1.1-0.8 1.9-1.7 1.9zm0.9-1.9c0-0.7-0.4-1.2-0.9-1.2-0.6 0-1 0.5-1 1.2 0 0.7 0.4 1.2 1 1.2 0.5 0 0.9-0.5 0.9-1.2z"/>
		<path id="Layer" class="s2" d="m182 46.3h2.3v0.7h-1.5v0.9h1.1v0.8h-1.1v1.4h-0.8v-3.8z"/>
		<path id="Layer" class="s2" d="m185 46.3h2.3v0.7h-1.6v0.8h1.2v0.7h-1.2v0.9h1.6v0.7h-2.3v-3.8z"/>
		<path id="Layer" class="s2" d="m187.9 49.2l0.5-0.4c0 0.1 0.3 0.6 0.8 0.6 0.3 0 0.5-0.2 0.5-0.4 0-0.2-0.1-0.3-0.6-0.5-0.5-0.2-1.2-0.4-1.2-1.2 0-0.6 0.5-1 1.3-1 0.7 0 1 0.4 1.2 0.8l-0.7 0.4c-0.1-0.5-0.5-0.5-0.8-0.5h0.2c-0.2 0-0.4 0.1-0.4 0.3 0 0.2 0.1 0.3 0.6 0.5 0.5 0.1 1.2 0.3 1.2 1.2 0 0.6-0.5 1.1-1.2 1.1-0.1 0-0.2 0-0.3 0-0.5 0-1-0.3-1.1-0.9z"/>
		<path id="Layer" class="s2" d="m191.1 49.2l0.5-0.4c0 0.1 0.3 0.6 0.8 0.6 0.3 0 0.5-0.2 0.5-0.4 0-0.2-0.1-0.3-0.6-0.5-0.5-0.2-1.2-0.4-1.2-1.2 0-0.6 0.5-1 1.3-1 0.7 0 1.1 0.4 1.2 0.8l-0.7 0.4c-0.1-0.5-0.5-0.5-0.8-0.5h0.3c-0.3 0-0.5 0.1-0.5 0.3 0 0.2 0.1 0.3 0.6 0.5 0.5 0.1 1.2 0.3 1.2 1.2 0 0.6-0.5 1.1-1.2 1.1-0.1 0-0.2 0-0.3 0-0.5 0-1-0.3-1.1-0.9z"/>
		<path id="Layer" class="s2" d="m194.5 46.3h0.7v3.8h-0.7z"/>
		<path id="Layer" fill-rule="evenodd" class="s2" d="m197.7 50.1c-0.9 0-1.7-0.8-1.7-1.9 0-1.1 0.8-1.9 1.7-1.9 1 0 1.8 0.8 1.8 1.9 0 1.1-0.8 1.9-1.8 1.9zm1-1.9c0-0.7-0.4-1.2-1-1.2-0.5 0-0.9 0.5-0.9 1.2 0 0.7 0.4 1.2 0.9 1.2 0.6 0 1-0.5 1-1.2z"/>
		<path id="Layer" class="s2" d="m200.3 50.1v-3.8h0.7l1.5 2.4v-2.4h0.8v3.8h-0.9l-1.3-2.3v2.3h-0.8z"/>
		<path id="Layer" fill-rule="evenodd" class="s2" d="m205.2 46.3h0.8l1.2 3.8h-0.8l-0.3-0.9h-1.1l-0.3 0.9h-0.8l1.3-3.8zm0.7 2.2l-0.3-1.3-0.4 1.3z"/>
		<path id="Layer" class="s2" d="m207.8 50.1v-3.8h0.8v3h1.3v0.8h-2.1z"/>
		<path id="Layer" class="s2" d="m210.5 49.2l0.5-0.4c0 0.1 0.3 0.6 0.8 0.6 0.3 0 0.5-0.2 0.5-0.4 0-0.2 0-0.3-0.6-0.5-0.5-0.2-1.1-0.4-1.1-1.2 0-0.6 0.5-1 1.2-1 0.8 0 1.1 0.4 1.2 0.8l-0.6 0.4c-0.1-0.5-0.6-0.5-0.9-0.5h0.3c-0.3 0-0.4 0.1-0.4 0.3 0 0.2 0 0.3 0.5 0.5 0.5 0.1 1.2 0.3 1.2 1.2 0 0.6-0.5 1.1-1.2 1.1 0 0-0.2 0-0.2 0-0.6 0-1-0.3-1.2-0.9z"/>
		<path id="Layer" class="s1" d="m112.6 86.8l3.9-9.4-7.8-22.3h6.8l4.2 14.1 5.4-14.1h7.1l-12.7 31.7h-6.9z"/>
		<g id="Layer">
			<path id="Layer" class="s2" d="m63 100.4q0.1 0.1 0.1 0.2v5.1c0 0.1-0.1 0.2-0.2 0.2h-1.7c-0.2 0-0.3-0.1-0.3-0.2v-3.8-0.1l-2.3-1-2.2 1-0.1 0.1v3.8c0 0.1-0.1 0.2-0.2 0.2h-1.7c-0.2 0-0.3-0.1-0.3-0.2v-6.9c0-0.1 0.1-0.3 0.3-0.3h1.7c0.1 0 0.2 0.2 0.2 0.3v0.6h0.1l2.1-1q0.1 0 0.1 0 0.1 0 0.1 0l4.3 2"/>
			<path id="Layer" class="s2" d="m73.8 99.8v5.9c0 0.1-0.1 0.2-0.3 0.2h-1.7c-0.1 0-0.3-0.1-0.3-0.2v-5.9c0-0.2 0.2-0.3 0.3-0.3h1.7c0.2 0 0.3 0.1 0.3 0.3z"/>
			<path id="Layer" class="s2" d="m72.7 98.7c-0.8 0-1.3-0.6-1.3-1.3 0-0.7 0.5-1.3 1.3-1.3 0.7 0 1.3 0.6 1.3 1.3 0 0.7-0.6 1.3-1.3 1.3z"/>
			<path id="Layer" class="s2" d="m86.6 99.4q1.1 0 1.7 0.6 0.6 0.7 0.6 1.8v3.9c0 0.1-0.1 0.3-0.2 0.3h-1.8c-0.1 0-0.2-0.2-0.2-0.3v-3.2c0-0.4-0.1-1-0.9-1-0.3 0-0.9 0.1-0.9 1v3.2c0 0.1-0.1 0.3-0.2 0.3h-1.8c-0.1 0-0.2-0.2-0.2-0.3v-8.9c0-0.1 0.1-0.2 0.2-0.2h1.8c0.1 0 0.2 0.1 0.2 0.2v3.3l0.1-0.1q0.6-0.6 1.6-0.6"/>
			<path id="Layer" fill-rule="evenodd" class="s2" d="m94 99.4c1.7 0 3 1.4 3 3.3 0 2-1.3 3.4-3 3.4q-1.1 0-1.7-0.7l-0.1-0.1v0.4c0 0.1-0.1 0.2-0.3 0.2h-1.6c-0.2 0-0.3-0.1-0.3-0.2v-8.9c0-0.1 0.1-0.2 0.3-0.2h1.7c0.2 0 0.3 0.1 0.3 0.2v3.3l0.1-0.1q0.6-0.6 1.6-0.6m0.6 3.3c0-0.7-0.5-1.3-1.2-1.3-0.7 0-1.2 0.6-1.2 1.3 0 0.8 0.5 1.3 1.2 1.3 0.7 0 1.2-0.5 1.2-1.3z"/>
			<path id="Layer" fill-rule="evenodd" class="s2" d="m101.3 106.1c-2 0-3.6-1.5-3.6-3.4 0-1.8 1.6-3.3 3.6-3.3 1.9 0 3.5 1.5 3.5 3.3 0 1.9-1.6 3.4-3.5 3.4zm1.2-3.4c0-0.7-0.6-1.3-1.2-1.3-0.7 0-1.3 0.6-1.3 1.3 0 0.8 0.6 1.3 1.3 1.3 0.6 0 1.2-0.5 1.2-1.3z"/>
			<path id="Layer" fill-rule="evenodd" class="s2" d="m81.6 105.2v0.8c0 2-1.7 3.6-3.7 3.6-1.3 0-2.6-0.6-3.2-1.8q-0.1-0.1 0-0.2 0-0.1 0.1-0.1l1.5-0.7q0.1-0.1 0.1-0.1 0.2 0 0.2 0.1c0.3 0.4 0.8 0.7 1.3 0.7 0.8 0 1.5-0.7 1.5-1.5v-1l-0.1 0.1q-0.6 0.7-1.7 0.7c-0.8 0-1.6-0.3-2.1-1-0.5-0.5-0.8-1.4-0.8-2.2 0-0.9 0.3-1.7 0.8-2.3 0.5-0.6 1.3-0.9 2.1-0.9q1.1 0 1.7 0.7l0.1 0.1v-0.4c0-0.1 0.1-0.3 0.3-0.3h1.6c0.2 0 0.3 0.2 0.3 0.3v5.4zm-2.2-2.5c0-0.7-0.5-1.3-1.2-1.3-0.7 0-1.2 0.6-1.2 1.3 0 0.8 0.5 1.3 1.2 1.3 0.7 0 1.2-0.5 1.2-1.3z"/>
			<path id="Layer" class="s2" d="m109.8 99.4c0.2 0 0.3 0.1 0.3 0.2l-0.1 1.7q0 0.2-0.1 0.2-0.1 0.1-0.2 0.1 0 0 0 0-0.4-0.1-0.7-0.1c-0.8 0-1.2 0.3-1.2 1v3.2c0 0.1-0.1 0.2-0.2 0.2h-1.8c-0.1 0-0.2-0.1-0.2-0.2v-5.9c0-0.1 0.1-0.3 0.2-0.3h1.7c0.1 0 0.2 0.2 0.2 0.3v0.5l0.1-0.1c0.4-0.6 0.9-0.8 1.7-0.8q0.2 0 0.3 0"/>
			<path id="Layer" class="s2" d="m113.5 96.8v8.9c0 0.1-0.1 0.2-0.3 0.2h-1.7c-0.2 0-0.3-0.1-0.3-0.2v-8.9c0-0.1 0.1-0.2 0.3-0.2h1.7c0.2 0 0.3 0.1 0.3 0.2z"/>
			<path id="Layer" class="s2" d="m119.8 102.2v-2.4c0-0.2 0.1-0.3 0.3-0.3h1.6c0.2 0 0.3 0.1 0.3 0.3v6.1 0.1c0 0.9-0.5 1.9-1.2 2.6-0.7 0.7-1.7 1-2.7 1-1.3 0-2.6-0.7-3.3-1.8q0-0.1 0-0.2 0-0.2 0.1-0.2l1.6-0.7q0-0.1 0.1-0.1 0.1 0.1 0.2 0.2c0.3 0.4 0.8 0.7 1.3 0.7 0.9 0 1.7-0.8 1.7-1.7v-0.1h-0.1q-0.6 0.2-1.2 0.2c-2 0-3.7-1.6-3.7-3.7v-2.4c0-0.2 0.1-0.3 0.3-0.3h1.6c0.2 0 0.3 0.1 0.3 0.3v2.4c0 0.9 0.6 1.5 1.4 1.5 0.8 0 1.4-0.6 1.4-1.5z"/>
			<path id="Layer" fill-rule="evenodd" class="s2" d="m67.4 99.3c0.9 0 1.7 0.4 2.3 1 0.6 0.6 1 1.4 1 2.4 0 0.2 0 0.3-0.1 0.4 0 0.2-0.1 0.3-0.2 0.3h-4.1q0.3 0.9 1.3 0.9 0.5-0.1 1-0.4 0.1-0.1 0.2-0.1 0.1 0 0.2 0.1l1.1 0.9q0.1 0.1 0.1 0.2 0 0.1-0.1 0.2c-0.6 0.6-1.6 0.9-2.7 0.9-1 0-1.8-0.3-2.5-0.9q-0.9-0.9-0.9-2.4c0-1 0.3-1.9 0.9-2.5 0.6-0.6 1.5-1 2.5-1m1.2 2.8v-0.1c-0.1-0.6-0.6-1-1.2-1-0.6 0-1.2 0.4-1.2 1v0.1z"/>
			<path id="Layer" fill-rule="evenodd" class="s2" d="m47.3 105.9v-0.7c-0.5 0.6-1.2 0.9-2.1 0.9-1.9 0-3.4-1.5-3.4-3.3 0-1.9 1.5-3.4 3.4-3.4q1.3 0 2.1 0.9v-0.8h1.3v6.4c0 0-1.3 0-1.3 0zm0-3.2c0-1.1-0.9-2.1-2.1-2.1-1.2 0-2.1 1-2.1 2.1 0 1.2 0.9 2.2 2.1 2.2 1.2 0 2.1-1 2.1-2.2z"/>
			<path id="Layer" class="s2" d="m133.1 104.5c-0.6 1-1.7 1.6-2.9 1.6-1.8 0-3.4-1.5-3.4-3.3 0-1.9 1.5-3.4 3.4-3.4 1.2 0 2.3 0.6 2.9 1.6l-1.1 0.6c-0.4-0.6-1.1-1-1.8-1-1.2 0-2.1 1-2.1 2.2 0 1.1 1 2.1 2.1 2.1 0.8 0 1.5-0.4 1.8-1l1.1 0.6z"/>
			<path id="Layer" fill-rule="evenodd" class="s2" d="m137.3 106.1c-1.9 0-3.4-1.5-3.4-3.4 0-1.8 1.5-3.3 3.4-3.3 1.8 0 3.3 1.5 3.3 3.3 0 1.9-1.5 3.4-3.3 3.4zm2.1-3.4c0-1.1-1-2.1-2.1-2.1-1.2 0-2.1 1-2.1 2.1 0 1.2 0.9 2.2 2.1 2.2 1.1 0 2.1-1 2.1-2.2z"/>
			<path id="Layer" class="s2" d="m150.5 105.9v-3.3c0-1.3-0.3-2-1.3-2-1 0-1.6 0.7-1.6 2.1v3.2h-1.3v-3.3c0-1.3-0.3-2-1.3-2-1 0-1.5 0.7-1.5 2.1v3.2h-1.3v-6.4h1.3v0.7c0.5-0.5 1-0.8 1.7-0.8 0.9 0 1.7 0.3 2.1 1.2 0.6-1 1.4-1.2 2.1-1.2 1.4 0 2.4 0.9 2.4 2.9v3.6h-1.3z"/>
			<path id="Layer" fill-rule="evenodd" class="s2" d="m153.7 109.3v-9.8h1.3v0.8c0.6-0.6 1.3-0.9 2.2-0.9 1.9 0 3.4 1.4 3.4 3.3 0 2-1.5 3.4-3.4 3.4-0.9 0-1.6-0.3-2.2-0.9v4.1zm5.6-6.6c0-1.1-1-2.1-2.1-2.1-1.2 0-2.1 1-2.1 2.1 0 1.2 0.9 2.2 2.1 2.2 1.1 0 2.1-1 2.1-2.2z"/>
			<path id="Layer" fill-rule="evenodd" class="s2" d="m167.1 105.9v-0.7c-0.5 0.6-1.3 0.9-2.1 0.9-1.9 0-3.4-1.5-3.4-3.3 0-1.9 1.5-3.4 3.4-3.4q1.3 0 2.1 0.9v-0.8h1.3v6.4c0 0-1.3 0-1.3 0zm0-3.2c0-1.1-1-2.1-2.1-2.1-1.2 0-2.1 1-2.1 2.1 0 1.2 0.9 2.2 2.1 2.2 1.1 0 2.1-1 2.1-2.2z"/>
			<path id="Layer" class="s2" d="m175 105.9v-3.3c0-1.3-0.5-2-1.6-2-1.1 0-1.6 0.7-1.6 2.1v3.2h-1.3v-6.4h1.3v0.7c0.4-0.5 0.9-0.8 1.8-0.8 1.6 0 2.7 0.9 2.7 2.9v3.6h-1.3z"/>
			<path id="Layer" class="s2" d="m178.7 109.3l1.2-3.3-2.6-6.5h1.4l1.8 4.8 1.8-4.8h1.3l-3.6 9.8h-1.3z"/>
			<path id="Layer" fill-rule="evenodd" class="s2" d="m123.9 101c-0.5 0-0.9-0.4-0.9-0.8 0-0.5 0.4-0.9 0.9-0.9 0.5 0 0.9 0.4 0.9 0.9 0 0.4-0.4 0.8-0.9 0.8zm0-1.5c-0.4 0-0.7 0.3-0.7 0.7 0 0.3 0.3 0.6 0.7 0.6 0.4 0 0.6-0.3 0.6-0.6 0-0.4-0.3-0.7-0.6-0.7zm-0.2 1.1h-0.2v-0.9q0.2 0 0.4 0c0.1 0 0.2 0 0.3 0.1q0 0 0 0.2 0 0.1-0.1 0.2 0.1 0 0.1 0.2 0.1 0.2 0.1 0.2h-0.2c0 0-0.1-0.1-0.1-0.2q0-0.1-0.2-0.1h-0.1zm0-0.5h0.1c0.1 0 0.2-0.1 0.2-0.1q0-0.2-0.2-0.2 0 0-0.1 0z"/>
		</g>
		<path id="Layer" class="s2" d="m91.5 45.3c-1 2.5-4.7 6.3-8.8 6.3-1.2 0-2.4-0.6-3.2-1.7-1.2-1.4-2.2-4.4-0.9-10.3-0.6 0-1.2 0-1.7 0-0.3 2.5-1.1 5-2.4 7.1-1.1 2-3 4.3-6.7 4.3-1.8 0-3.2-0.6-4.1-1.7-1.7-2.1-1.8-6.3-0.2-13.8-1.8 3-3.7 6.7-5.5 10.2q-1.1 2.2-2.2 4.3v0.1h-0.2c-2.7 0.5-4.2 0.5-4.8-0.1-0.2-0.2-0.4-0.5-0.3-1l0.1-0.1c1.6-8.3 2.7-14.6 3.2-18.8-3 5.9-5.7 12.4-8 18.1l-0.6 1.4-0.1 0.1c-1.5 0.6-4.3 1.1-5.3 0.4-0.2-0.2-0.3-0.4-0.3-0.7l3.5-18.2c-0.8 0.6-2.7 2.2-5 4.4-0.4 0.4-1 0.5-1.4 0.1-0.7-0.7-1.6-3.2-1.6-4.6q0-0.8 0.3-1.2h0.1l10.1-5.1c1-0.1 2 0.4 2.6 1.1 0.5 0.5 0.7 1.2 0.5 1.9-0.4 2-0.9 3.8-1.4 5.7-0.5 1.9-1 3.9-1.5 6.1 0.7-1.7 1.3-3.4 1.9-5 1.7-4.7 3.2-9.1 5-12.4 0.4-0.8 1.3-1.1 2.1-0.9 1.3 0.3 3.2 1.2 4.5 2 0.8 0.5 1.1 1.4 1 2.3l-3.3 15.2c2.6-6 6.6-12.9 7.5-13.9 0.6-0.7 3.1 0.4 4.5 1.4 0.7 0.6 1 1.5 0.8 2.4-2.1 6.8-3.3 15.4-1.7 17.4q0.3 0.5 0.8 0.5c0.9 0 1.5 0 2.8-2.5l0.1-0.1c0.9-2 1.6-4.5 1.9-6.8-1.7-0.5-2.6-1.7-2.6-3.6 0-1.1 0.5-2.6 1.6-3.5 0.8-0.6 1.8-0.8 2.9-0.6 0.5 0.1 0.8 0.5 0.9 1q0.1 0.6 0.2 1.2c0.2 0.8 0.3 1.6 0.4 2.4q0.4 0 0.8 0c2.1 0.1 4.1 0.1 5-0.4h0.1 0.1c0.5 0 1.1 0.1 1.4 0.6q0.3 0.4 0 1.2c-2.6 6.9-1.8 9.3-1.3 10q0.4 0.6 1 0.6c0.9 0 2.3-1.4 3.4-4.5v-0.1l0.1-0.1c0.8-0.4 2.8 0.3 3.5 0.9 0.5 0.4 0.5 0.8 0.4 1z"/>
		<path id="Layer" class="s2" d="m94.6 51.9c-1.6 0-2.8-1.3-2.8-2.8 0-1.6 1.2-2.8 2.8-2.8 1.5 0 2.8 1.2 2.8 2.8 0 1.5-1.3 2.8-2.8 2.8z"/>
		<path id="Layer" class="s0" d="m107.2 33.3v5.9l-50.8-26.6-47.1 24.1v-5.8l47.1-24.2 50.8 26.6z"/>
	</g>
	<path id="Layer" class="s2" d="m220.1 56.3v0.6h-1.2v3.2h-0.7v-3.2h-1.3v-0.6c0 0 3.2 0 3.2 0zm4.2 3.8l-0.2-2.3q0-0.4 0-1c-0.1 0.3-0.2 0.8-0.4 1.1l-0.6 2.2h-0.8l-0.7-2.2c-0.1-0.3-0.2-0.8-0.3-1.1q0 0.5-0.1 1l-0.1 2.3h-0.7l0.3-3.8h1.1l0.7 1.8c0 0.3 0.1 0.6 0.2 1q0.2-0.5 0.3-0.9l0.7-1.9h1l0.3 3.8z"/>
</svg>